HIERARCHY
ROOT Hips
{
  OFFSET -0.589095 22.1471 2.58842
  CHANNELS 6 Xposition Yposition Zposition Zrotation Xrotation Yrotation
  JOINT BN_Bip01_Pelvis
  {
    OFFSET -3.49357 -5.29363 -0.000213444
    CHANNELS 6 Xposition Yposition Zposition Zrotation Xrotation Yrotation
    JOINT BN_leg_R_01
    {
      OFFSET 10.8127 -7.82778 -6.29737
      CHANNELS 6 Xposition Yposition Zposition Zrotation Xrotation Yrotation
      JOINT BN_leg_R_02
      {
        OFFSET 8.91071 0 0
        CHANNELS 6 Xposition Yposition Zposition Zrotation Xrotation Yrotation
        JOINT BN_leg_R_03
        {
          OFFSET 15.6024 0 0
          CHANNELS 6 Xposition Yposition Zposition Zrotation Xrotation Yrotation
          JOINT BN_leg_R_04
          {
            OFFSET 9.68174 0 0
            CHANNELS 6 Xposition Yposition Zposition Zrotation Xrotation Yrotation
            JOINT BN_leg_R_05
            {
              OFFSET 10.6982 0 0
              CHANNELS 6 Xposition Yposition Zposition Zrotation Xrotation Yrotation
              JOINT BN_Leg_R_05Nub
              {
                OFFSET 11.1504 0 0
                CHANNELS 6 Xposition Yposition Zposition Zrotation Xrotation Yrotation
                End Site
                {
                  OFFSET 0 0 0
                }
              }
            }
          }
        }
      }
    }
    JOINT BN_leg_R_06
    {
      OFFSET 6.51511 -7.99898 -4.29089
      CHANNELS 6 Xposition Yposition Zposition Zrotation Xrotation Yrotation
      JOINT BN_Leg_R_07
      {
        OFFSET 9.03709 0 0
        CHANNELS 6 Xposition Yposition Zposition Zrotation Xrotation Yrotation
        JOINT BN_Leg_R_08
        {
          OFFSET 18.7638 0 0
          CHANNELS 6 Xposition Yposition Zposition Zrotation Xrotation Yrotation
          JOINT BN_Leg_R_09
          {
            OFFSET 10.9666 0 0
            CHANNELS 6 Xposition Yposition Zposition Zrotation Xrotation Yrotation
            JOINT BN_Leg_R_10
            {
              OFFSET 10.8726 0 0
              CHANNELS 6 Xposition Yposition Zposition Zrotation Xrotation Yrotation
              JOINT BN_Leg_R_10Nub
              {
                OFFSET 11.2648 0 0
                CHANNELS 6 Xposition Yposition Zposition Zrotation Xrotation Yrotation
                End Site
                {
                  OFFSET 0 0 0
                }
              }
            }
          }
        }
      }
    }
    JOINT BN_Leg_R_11
    {
      OFFSET 2.71429 -8.18693 -0.209972
      CHANNELS 6 Xposition Yposition Zposition Zrotation Xrotation Yrotation
      JOINT BN_Leg_R_12
      {
        OFFSET 9.8713 0 0
        CHANNELS 6 Xposition Yposition Zposition Zrotation Xrotation Yrotation
        JOINT BN_Leg_R_13
        {
          OFFSET 21.8657 0 0
          CHANNELS 6 Xposition Yposition Zposition Zrotation Xrotation Yrotation
          JOINT BN_Leg_R_14
          {
            OFFSET 11.0011 0 0
            CHANNELS 6 Xposition Yposition Zposition Zrotation Xrotation Yrotation
            JOINT BN_Leg_R_15
            {
              OFFSET 12.8798 0 0
              CHANNELS 6 Xposition Yposition Zposition Zrotation Xrotation Yrotation
              JOINT BN_Leg_R_15Nub
              {
                OFFSET 13.0642 0 0
                CHANNELS 6 Xposition Yposition Zposition Zrotation Xrotation Yrotation
                End Site
                {
                  OFFSET 0 0 0
                }
              }
            }
          }
        }
      }
    }
    JOINT BN_Leg_L_11
    {
      OFFSET 2.7143 8.18692 -0.209982
      CHANNELS 6 Xposition Yposition Zposition Zrotation Xrotation Yrotation
      JOINT BN_Leg_L_12
      {
        OFFSET 9.87129 0 0
        CHANNELS 6 Xposition Yposition Zposition Zrotation Xrotation Yrotation
        JOINT BN_Leg_L_13
        {
          OFFSET 21.8657 0 0
          CHANNELS 6 Xposition Yposition Zposition Zrotation Xrotation Yrotation
          JOINT BN_Leg_L_14
          {
            OFFSET 11.0011 0 0
            CHANNELS 6 Xposition Yposition Zposition Zrotation Xrotation Yrotation
            JOINT BN_Leg_L_15
            {
              OFFSET 12.8798 0 0
              CHANNELS 6 Xposition Yposition Zposition Zrotation Xrotation Yrotation
              JOINT BN_Leg_L_15Nub
              {
                OFFSET 13.0642 0 0
                CHANNELS 6 Xposition Yposition Zposition Zrotation Xrotation Yrotation
                End Site
                {
                  OFFSET 0 0 0
                }
              }
            }
          }
        }
      }
    }
    JOINT BN_leg_L_06
    {
      OFFSET 6.51511 7.99896 -4.29091
      CHANNELS 6 Xposition Yposition Zposition Zrotation Xrotation Yrotation
      JOINT BN_Leg_L_07
      {
        OFFSET 9.03709 0 0
        CHANNELS 6 Xposition Yposition Zposition Zrotation Xrotation Yrotation
        JOINT BN_Leg_L_08
        {
          OFFSET 18.7638 0 0
          CHANNELS 6 Xposition Yposition Zposition Zrotation Xrotation Yrotation
          JOINT BN_Leg_L_09
          {
            OFFSET 10.9666 0 0
            CHANNELS 6 Xposition Yposition Zposition Zrotation Xrotation Yrotation
            JOINT BN_Leg_L_10
            {
              OFFSET 10.8726 0 0
              CHANNELS 6 Xposition Yposition Zposition Zrotation Xrotation Yrotation
              JOINT BN_Leg_L_10Nub
              {
                OFFSET 11.2649 0 0
                CHANNELS 6 Xposition Yposition Zposition Zrotation Xrotation Yrotation
                End Site
                {
                  OFFSET 0 0 0
                }
              }
            }
          }
        }
      }
    }
    JOINT BN_leg_L_01
    {
      OFFSET 10.8127 7.82776 -6.29737
      CHANNELS 6 Xposition Yposition Zposition Zrotation Xrotation Yrotation
      JOINT BN_leg_L_02
      {
        OFFSET 8.91072 0 0
        CHANNELS 6 Xposition Yposition Zposition Zrotation Xrotation Yrotation
        JOINT BN_leg_L_03
        {
          OFFSET 15.6024 0 0
          CHANNELS 6 Xposition Yposition Zposition Zrotation Xrotation Yrotation
          JOINT BN_leg_L_04
          {
            OFFSET 9.68174 0 0
            CHANNELS 6 Xposition Yposition Zposition Zrotation Xrotation Yrotation
            JOINT BN_leg_L_05
            {
              OFFSET 10.6982 0 0
              CHANNELS 6 Xposition Yposition Zposition Zrotation Xrotation Yrotation
              JOINT BN_Leg_L_05Nub
              {
                OFFSET 11.1504 0 0
                CHANNELS 6 Xposition Yposition Zposition Zrotation Xrotation Yrotation
                End Site
                {
                  OFFSET 0 0 0
                }
              }
            }
          }
        }
      }
    }
    JOINT BN_Eye_L_01
    {
      OFFSET 28.5502 2.54627 -3.93739
      CHANNELS 6 Xposition Yposition Zposition Zrotation Xrotation Yrotation
      JOINT BN_Eye_L_02
      {
        OFFSET 2.30267 0 0
        CHANNELS 6 Xposition Yposition Zposition Zrotation Xrotation Yrotation
        JOINT BN_Eye_L_03
        {
          OFFSET 5.31894 0 0
          CHANNELS 6 Xposition Yposition Zposition Zrotation Xrotation Yrotation
          JOINT BN_Eye_L_04
          {
            OFFSET 9.71244 0 0
            CHANNELS 6 Xposition Yposition Zposition Zrotation Xrotation Yrotation
            End Site
            {
              OFFSET 0 0 0
            }
          }
        }
      }
    }
    JOINT BN_Eye_R_01
    {
      OFFSET 28.5502 -2.54612 -3.93738
      CHANNELS 6 Xposition Yposition Zposition Zrotation Xrotation Yrotation
      JOINT BN_Eye_R_02
      {
        OFFSET 2.30267 0 0
        CHANNELS 6 Xposition Yposition Zposition Zrotation Xrotation Yrotation
        JOINT BN_Eye_R_03
        {
          OFFSET 5.31896 0 0
          CHANNELS 6 Xposition Yposition Zposition Zrotation Xrotation Yrotation
          JOINT BN_Eye_R_04
          {
            OFFSET 9.71244 0 0
            CHANNELS 6 Xposition Yposition Zposition Zrotation Xrotation Yrotation
            End Site
            {
              OFFSET 0 0 0
            }
          }
        }
      }
    }
    JOINT BN_Arm_L_01
    {
      OFFSET 15.9737 8.03546 -8.36195
      CHANNELS 6 Xposition Yposition Zposition Zrotation Xrotation Yrotation
      JOINT BN_Arm_L_02
      {
        OFFSET 16.8869 0 0
        CHANNELS 6 Xposition Yposition Zposition Zrotation Xrotation Yrotation
        JOINT BN_Arm_L_03
        {
          OFFSET 8.42975 0 0
          CHANNELS 6 Xposition Yposition Zposition Zrotation Xrotation Yrotation
          JOINT BN_Arm_L_04
          {
            OFFSET 7.53864 -0.0312023 2.09083
            CHANNELS 6 Xposition Yposition Zposition Zrotation Xrotation Yrotation
            End Site
            {
              OFFSET 0 0 0
            }
          }
        }
      }
    }
    JOINT BN_Arm_R_01
    {
      OFFSET 14.7806 -6.70232 -9.44366
      CHANNELS 6 Xposition Yposition Zposition Zrotation Xrotation Yrotation
      JOINT BN_Arm_R_02
      {
        OFFSET 19.9827 0 0
        CHANNELS 6 Xposition Yposition Zposition Zrotation Xrotation Yrotation
        JOINT BN_Arm_R_03
        {
          OFFSET 17.4553 0 0
          CHANNELS 6 Xposition Yposition Zposition Zrotation Xrotation Yrotation
          JOINT BN_Arm_R_04
          {
            OFFSET 13.3834 -2.22657 7.3982
            CHANNELS 6 Xposition Yposition Zposition Zrotation Xrotation Yrotation
            End Site
            {
              OFFSET 0 0 0
            }
          }
        }
      }
    }
  }
}
MOTION
Frames:	4
Frame Time:	0.0333333
-21.5897 24.4776 3.03413 -11.7398 -0.0783496 6.64049 -3.49325 -8.0258 4.44089e-016 -163.389 -84.4569 153.045 10.8127 -7.82778 -6.29736 -130.7 37.9294 22.6259 8.91072 -1.90735e-006 9.53674e-007 76.6764 0.614438 1.66773 15.6024 3.8147e-006 -9.53674e-007 -97.405 14.8233 29.4901 9.68174 -3.8147e-006 1.90735e-006 -26.7626 -0.329979 -12.3963 10.6982 3.8147e-006 -9.53674e-007 -42.3817 4.11487 -0.888703 11.1504 3.8147e-006 9.53674e-007 1.92694e-007 9.90956e-006 1.0587e-006 6.5151 -7.99898 -4.29089 -164.072 24.9282 16.8853 9.03709 -3.55271e-015 -3.55271e-015 108.549 -2.5019 -2.73456 18.7638 1.90735e-006 3.8147e-006 -112.698 0.750868 18.3136 10.9665 -3.8147e-006 -3.58824e-013 -0.14943 -0.72761 0.149432 10.8726 3.8147e-006 7.10543e-015 0.230788 -0.014293 -0.143367 11.2648 3.8147e-006 -3.8147e-006 -3.32808e-007 1.38199e-007 9.54137e-007 2.71429 -8.18693 -0.209972 -165.197 36.6506 3.49958 9.87128 -7.10543e-015 0 89.8079 1.78534 -0.632912 21.8657 -9.53674e-007 -1.90735e-006 -84.0914 4.84267 14.3848 11.0011 3.8147e-006 1.90735e-006 -12.6454 -0.299897 -0.659539 12.8798 3.81469e-006 1.90735e-006 -20.4727 -0.0378462 0.112765 13.0642 0 7.6294e-006 -5.82488e-008 1.04788e-005 1.234e-006 2.7143 8.18692 -0.209976 110.671 -23.8529 -0.39287 9.8713 -9.53674e-007 -1.90735e-006 -47.5227 -2.37052 -0.344357 21.8657 9.53674e-007 -1.90735e-006 58.4245 -1.83858 7.98472 11.0011 -3.8147e-006 7.10543e-015 14.5075 0.486114 -0.75866 12.8798 3.8147e-006 3.8147e-006 22.7798 0.0481735 0.0898495 13.0642 7.62939e-006 1.90735e-006 -5.58781e-007 8.33514e-007 9.73259e-008 6.51512 7.99896 -4.2909 126.458 -30.8609 7.66067 9.03709 9.53674e-007 1.90735e-006 -72.7849 1.79618 -2.76094 18.7638 1.43051e-006 1.74083e-013 67.5419 -15.911 23.6604 10.9666 1.42108e-014 1.06581e-014 36.4341 0.403565 -1.99585 10.8726 7.62939e-006 -1.91847e-013 34.6359 0.0145334 -3.18461 11.2648 0 -4.26326e-014 2.01991e-007 7.80031e-008 9.79392e-009 10.8127 7.82776 -6.29737 104.585 -44.1759 22.3105 8.91072 2.86102e-006 5.68434e-014 -70.7072 -0.362179 1.54403 15.6024 -8.88179e-015 9.53674e-007 99.0248 -8.50792 18.6302 9.68174 1.06581e-013 -3.8147e-006 23.7027 0.0676899 -11.6188 10.6982 3.8147e-006 1.77636e-015 38.6814 -4.1166 -0.427392 11.1504 -3.8147e-006 -1.90735e-006 4.72697e-008 4.01501e-006 -3.31283e-009 28.5502 2.54627 -3.93738 85.241 -42.2159 57.7144 2.30267 -1.90735e-006 -1.77636e-015 -35.0639 32.9827 15.4326 5.31895 0 2.38419e-007 -0.264681 9.97153 -20.6674 9.71243 1.77636e-015 -7.10543e-015 16.4668 -0.0122441 -3.77277 28.5502 -2.54612 -3.93737 85.1518 -40.7789 137.083 2.30267 -1.90735e-006 4.76837e-007 -54.1635 -15.442 -7.4133 5.31894 1.90735e-006 4.76837e-007 -18.1192 -1.37742 20.2928 9.71243 8.88179e-016 -2.98023e-007 -19.1337 -1.94773 3.7232 15.9737 8.03546 -8.36195 41.226 0.0221547 12.3005 16.8869 -1.59872e-014 -1.90735e-006 -33.4033 0.177884 -12.9803 8.42976 2.66453e-014 -3.8147e-006 -26.1688 -5.43098e-007 5.62957e-007 7.53865 -0.031208 2.09083 -12.216 -4.4709 -30.0663 14.7806 -6.70232 -9.44365 86.7201 -61.7665 -171.684 19.9827 2.86102e-006 -9.53674e-007 58.2872 -6.04878 -64.0168 17.4553 -3.8147e-006 3.33786e-006 54.7211 -32.5614 -25.6797 13.3835 -2.22653 7.3982 7.94868 7.67914 15.9655 
-21.6167 24.5647 2.99441 -10.9439 -0.789984 7.16824 -3.49325 -8.0258 4.44089e-016 -163.39 -84.4569 153.045 10.8127 -7.82778 -6.29736 -132.247 37.0685 22.6943 8.91072 -1.90735e-006 9.53674e-007 76.4893 0.604638 1.6654 15.6024 3.8147e-006 -9.53674e-007 -96.7997 14.6507 29.4345 9.68174 -3.8147e-006 1.90735e-006 -26.6708 -0.323457 -12.3741 10.6982 3.8147e-006 -9.53674e-007 -42.2659 4.11744 -0.872744 11.1504 3.8147e-006 9.53674e-007 1.92694e-007 9.90956e-006 1.0587e-006 6.5151 -7.99898 -4.29089 -165.409 24.6347 16.8043 9.03709 0 3.55271e-015 108.345 -2.49705 -2.739 18.7638 1.90735e-006 3.8147e-006 -112.124 0.742561 18.2108 10.9665 -3.8147e-006 -3.58824e-013 -0.14943 -0.72761 0.149432 10.8726 3.8147e-006 3.55271e-015 0.230788 -0.014309 -0.143367 11.2648 3.8147e-006 -3.8147e-006 -3.32808e-007 1.38199e-007 9.54137e-007 2.71429 -8.18693 -0.209972 -167.073 37.5636 3.45159 9.87128 1.06581e-014 -3.55271e-015 92.1568 1.7609 -0.626311 21.8657 -9.53674e-007 -1.90735e-006 -84.1839 5.64209 12.7913 11.0011 3.8147e-006 1.90735e-006 -16.1852 -0.316039 -0.75849 12.8798 3.81469e-006 1.90735e-006 -24.8672 -0.0335542 0.0818729 13.0642 0 7.6294e-006 -5.82488e-008 1.04788e-005 1.234e-006 2.7143 8.18692 -0.209976 109.427 -23.6481 -0.807362 9.8713 -9.53674e-007 -1.90735e-006 -47.4081 -2.36945 -0.345188 21.8657 9.53674e-007 -1.90735e-006 58.5439 -1.72006 7.6878 11.0011 -3.8147e-006 2.13163e-014 14.3594 0.488777 -0.754649 12.8798 3.8147e-006 3.8147e-006 22.5944 0.0492061 0.0931859 13.0642 7.62939e-006 1.90735e-006 -5.58781e-007 8.33514e-007 9.7326e-008 6.51512 7.99896 -4.2909 125.408 -30.8732 7.60413 9.03709 9.53674e-007 1.90735e-006 -73.2071 1.80417 -2.76899 18.7638 1.43051e-006 1.59872e-013 68.0806 -15.3118 23.0407 10.9666 0 0 35.9666 0.409278 -1.96766 10.8726 7.62939e-006 -1.81188e-013 34.1632 0.0137744 -3.15829 11.2648 0 -4.26326e-014 2.01991e-007 7.80031e-008 9.79392e-009 10.8127 7.82776 -6.29737 103.957 -44.0748 22.5761 8.91072 2.86102e-006 4.9738e-014 -70.6858 -0.36189 1.5441 15.6024 7.10543e-015 9.53674e-007 99.0085 -8.21626 18.0915 9.68174 1.06581e-013 -3.8147e-006 23.601 0.061707 -11.5938 10.6982 3.8147e-006 3.55271e-015 38.5596 -4.11582 -0.409646 11.1504 -3.8147e-006 -1.90735e-006 4.72697e-008 4.01501e-006 -3.31282e-009 28.5502 2.54627 -3.93738 85.3616 -42.1818 57.4412 2.30267 -1.90735e-006 -3.55271e-015 -35.0654 33.3829 15.3718 5.31895 0 2.38419e-007 1.57274 9.19557 -21.2209 9.71243 7.10543e-015 3.55272e-015 16.7845 -0.210021 -4.46672 28.5502 -2.54612 -3.93737 85.1769 -40.7734 137.04 2.30267 -1.90735e-006 4.76837e-007 -54.0022 -15.5816 -5.70344 5.31894 1.90735e-006 4.76837e-007 -18.1034 -1.34695 21.1473 9.71243 4.4409e-015 -2.98023e-007 -20.3587 -1.72281 4.14782 15.9737 8.03546 -8.36195 41.3455 -0.00915533 11.6256 16.8869 -8.88178e-016 -1.90735e-006 -32.5736 -0.0839202 -13.7014 8.42976 3.90798e-014 -3.8147e-006 -26.0468 -5.52517e-007 2.62274e-006 7.53865 -0.031208 2.09083 -12.2222 -4.44156 -31.1859 14.7806 -6.70232 -9.44365 82.9887 -60.6935 -173.654 19.9827 2.86102e-006 -9.53674e-007 58.2853 -6.04977 -64.0446 17.4553 -3.8147e-006 3.33786e-006 54.7479 -32.5916 -25.6869 13.3835 -2.22653 7.3982 7.87134 7.77387 15.9147 
-21.6392 24.6543 2.95902 -10.2151 -1.48562 7.63923 -3.49325 -8.0258 -1.77636e-015 -163.39 -84.4568 153.045 10.8127 -7.82778 -6.29736 -133.713 36.1856 22.7668 8.91072 -1.90735e-006 9.53674e-007 76.3189 0.597788 1.66079 15.6024 3.8147e-006 -9.53674e-007 -96.2087 14.5127 29.4242 9.68174 -3.8147e-006 1.90735e-006 -26.5892 -0.315681 -12.3517 10.6982 3.8147e-006 -9.53674e-007 -42.1717 4.11498 -0.861695 11.1504 3.8147e-006 9.53674e-007 1.92694e-007 9.90956e-006 1.0587e-006 6.5151 -7.99898 -4.29089 -166.706 24.2866 16.7532 9.03709 0 1.06581e-014 108.164 -2.49555 -2.74499 18.7638 1.90735e-006 3.8147e-006 -111.562 0.733717 18.1318 10.9665 -3.8147e-006 -3.62377e-013 -0.14943 -0.72761 0.149432 10.8726 3.8147e-006 1.06581e-014 0.230789 -0.0143416 -0.143367 11.2648 3.8147e-006 -3.8147e-006 -3.32808e-007 1.38199e-007 9.54137e-007 2.71429 -8.18693 -0.209972 -168.289 37.2229 4.15955 9.87128 7.10543e-015 -3.55271e-015 93.0243 1.75277 -0.623428 21.8657 -9.53674e-007 -1.90735e-006 -83.3548 5.53454 8.72609 11.0011 3.8147e-006 1.90735e-006 -21.1736 -0.346997 -0.887265 12.8798 3.81469e-006 1.90735e-006 -30.9749 -0.0218861 0.0442071 13.0642 -7.10542e-015 7.6294e-006 -5.82488e-008 1.04788e-005 1.234e-006 2.7143 8.18692 -0.209976 108.253 -23.4624 -1.23663 9.8713 -9.53674e-007 -1.90735e-006 -47.2806 -2.36987 -0.342566 21.8657 9.53674e-007 -1.90735e-006 58.6361 -1.6135 7.43442 11.0011 -3.8147e-006 -1.42109e-014 14.21 0.491347 -0.750988 12.8798 3.8147e-006 3.8147e-006 22.4108 0.0489132 0.0933576 13.0642 7.62939e-006 1.90735e-006 -5.58781e-007 8.33514e-007 9.7326e-008 6.51512 7.99896 -4.2909 124.407 -30.8922 7.52532 9.03709 9.53674e-007 1.90735e-006 -73.5899 1.81409 -2.77569 18.7638 1.43051e-006 1.66978e-013 68.5555 -14.76 22.4649 10.9666 1.42108e-014 -3.55271e-015 35.5209 0.415449 -1.93594 10.8726 7.62939e-006 -1.77636e-013 33.7197 0.0152093 -3.13278 11.2648 0 -3.19744e-014 2.01991e-007 7.80031e-008 9.79392e-009 10.8127 7.82776 -6.29737 103.329 -44.0079 22.7612 8.91072 2.86102e-006 4.9738e-014 -70.6248 -0.356172 1.54343 15.6024 7.10543e-015 9.53674e-007 98.9163 -7.94729 17.6134 9.68174 1.13687e-013 -3.8147e-006 23.539 0.0563285 -11.5805 10.6982 3.8147e-006 1.77636e-015 38.4819 -4.1154 -0.401329 11.1504 -3.8147e-006 -1.90735e-006 4.72697e-008 4.01501e-006 -3.3129e-009 28.5502 2.54627 -3.93738 85.5066 -42.138 57.1387 2.30267 -1.90735e-006 -3.55271e-015 -35.065 33.7374 15.3038 5.31895 0 2.38419e-007 3.38005 8.38731 -21.6905 9.71243 3.55271e-015 3.55272e-015 17.058 -0.384244 -5.1527 28.5502 -2.54612 -3.93737 85.2214 -40.7625 136.974 2.30267 -1.90735e-006 4.76837e-007 -53.8055 -15.7126 -3.96764 5.31894 1.90735e-006 4.76837e-007 -18.0924 -1.31749 22.0148 9.71243 7.99361e-015 -2.98023e-007 -21.5714 -1.49027 4.58496 15.9737 8.03546 -8.36195 41.4407 -0.0445965 10.9445 16.8869 9.76996e-015 -1.90735e-006 -31.7473 -0.352371 -14.3806 8.42976 3.55271e-014 -3.8147e-006 -25.8979 -1.55782e-006 1.6956e-006 7.53865 -0.031208 2.09083 -12.2236 -4.42954 -31.5689 14.7806 -6.70232 -9.44365 79.5271 -59.6718 -175.468 19.9827 2.86102e-006 -9.53674e-007 58.2834 -6.05147 -64.0576 17.4553 -3.8147e-006 3.33786e-006 54.7591 -32.6062 -25.6912 13.3835 -2.22653 7.3982 7.79169 7.86631 15.777 
-21.6564 24.7445 2.92999 -9.59425 -2.15915 8.03129 -3.49325 -8.0258 -1.33227e-015 -163.39 -84.4568 153.045 10.8127 -7.82778 -6.29736 -135.065 35.3037 22.877 8.91072 -1.90735e-006 9.53674e-007 76.1825 0.590949 1.66091 15.6024 3.8147e-006 -9.53674e-007 -95.6704 14.4171 29.4706 9.68174 -3.8147e-006 1.90735e-006 -26.5275 -0.311199 -12.3382 10.6982 3.8147e-006 -9.53674e-007 -42.094 4.11712 -0.85229 11.1504 3.8147e-006 9.53674e-007 1.92694e-007 9.90956e-006 1.0587e-006 6.5151 -7.99898 -4.29089 -167.927 23.8769 16.7518 9.03709 -3.55271e-015 0 108.023 -2.49217 -2.74807 18.7638 1.90735e-006 3.8147e-006 -111.04 0.726791 18.0838 10.9665 -3.8147e-006 -3.76588e-013 -0.14943 -0.72761 0.149432 10.8726 3.8147e-006 1.06581e-014 0.230787 -0.0144039 -0.143339 11.2648 3.8147e-006 -3.8147e-006 -3.32808e-007 1.38199e-007 9.54133e-007 2.71429 -8.18693 -0.209972 -169.907 36.3326 5.49895 9.87128 1.42109e-014 0 94.284 1.74185 -0.619052 21.8657 -9.53674e-007 -1.90735e-006 -86.3262 3.94548 3.82031 11.0011 3.8147e-006 1.90735e-006 -24.1018 -0.363464 -0.960876 12.8798 3.81469e-006 1.90735e-006 -34.5191 -0.0108825 0.0228588 13.0642 0 7.6294e-006 -5.82488e-008 1.04789e-005 1.234e-006 2.7143 8.18692 -0.209976 107.176 -23.3062 -1.67375 9.8713 -9.53674e-007 -1.90735e-006 -47.137 -2.37347 -0.340979 21.8657 9.53674e-007 -1.90735e-006 58.6957 -1.52417 7.23991 11.0011 -3.8147e-006 7.10543e-015 14.0669 0.493804 -0.747427 12.8798 3.8147e-006 3.8147e-006 22.2343 0.0486306 0.0935207 13.0642 7.62939e-006 1.90735e-006 -5.58781e-007 8.33514e-007 9.7326e-008 6.51512 7.99896 -4.2909 123.482 -30.9172 7.41414 9.03709 9.53674e-007 1.90735e-006 -73.9104 1.81979 -2.78516 18.7638 1.43051e-006 1.59872e-013 68.9958 -14.2601 21.9669 10.9666 0 7.10543e-015 35.0665 0.420518 -1.90803 10.8726 7.62939e-006 -1.66978e-013 33.2672 0.0146131 -3.10351 11.2648 0 -2.84217e-014 2.01991e-007 7.80031e-008 9.79392e-009 10.8127 7.82776 -6.29737 102.708 -43.9908 22.8361 8.91072 2.86102e-006 5.32907e-014 -70.5188 -0.352744 1.54093 15.6024 5.32907e-015 9.53674e-007 98.7487 -7.72275 17.2046 9.68174 1.13687e-013 -3.8147e-006 23.5207 0.0527914 -11.5722 10.6982 3.8147e-006 -7.10543e-015 38.46 -4.11745 -0.397693 11.1504 -3.8147e-006 -1.90735e-006 4.72697e-008 4.01501e-006 -3.31286e-009 28.5502 2.54627 -3.93738 85.6626 -42.0891 56.8081 2.30267 -1.90735e-006 0 -35.0507 34.028 15.2235 5.31895 0 2.38419e-007 5.02306 7.6015 -22.064 9.71243 3.55271e-015 3.55272e-015 17.2777 -0.528497 -5.80487 28.5502 -2.54612 -3.93737 85.2841 -40.7454 136.894 2.30267 -1.90735e-006 4.76837e-007 -53.5862 -15.8314 -2.26946 5.31894 1.90735e-006 4.76837e-007 -18.0825 -1.29095 22.8592 9.71243 1.06581e-014 -2.98023e-007 -22.7337 -1.26408 5.02383 15.9737 8.03546 -8.36195 41.4982 -0.082845 10.2694 16.8869 3.55271e-015 -1.90735e-006 -30.9476 -0.619351 -14.9963 8.42976 4.9738e-014 -3.8147e-006 -25.7274 -1.55893e-006 2.74909e-006 7.53865 -0.031208 2.09083 -12.2219 -4.45223 -30.9244 14.7806 -6.70232 -9.44365 76.4744 -58.7344 -177.065 19.9827 2.86102e-006 -9.53674e-007 58.2833 -6.0535 -64.0613 17.4553 -3.8147e-006 3.33786e-006 54.7635 -32.6071 -25.6899 13.3835 -2.22653 7.3982 7.71434 7.95884 15.5724 
